<mxfile modified="2023-03-25T20:50:49.506Z" host="app.diagrams.net" agent="Mozilla/5.0 (Windows NT 10.0; Win64; x64) AppleWebKit/537.36 (KHTML, like Gecko) Chrome/111.0.0.0 Safari/537.36" etag="rBdOqnWr7T0bPklAJCZm" version="21.1.1" type="github">
  <diagram id="Ht1M8jgEwFfnCIfOTk4-" name="Page-1">
    <mxGraphModel dx="1709" dy="911" grid="1" gridSize="10" guides="1" tooltips="1" connect="1" arrows="1" fold="1" page="1" pageScale="1" pageWidth="1169" pageHeight="827" math="0" shadow="0">
      <root>
        <mxCell id="0" />
        <mxCell id="1" parent="0" />
        <mxCell id="U1RUZYQq1lHfVOVuxAtu-1" value="Actor" style="shape=umlActor;verticalLabelPosition=bottom;verticalAlign=top;html=1;outlineConnect=0;" vertex="1" parent="1">
          <mxGeometry x="180" y="190" width="30" height="60" as="geometry" />
        </mxCell>
        <mxCell id="U1RUZYQq1lHfVOVuxAtu-2" value="Actor" style="shape=umlActor;verticalLabelPosition=bottom;verticalAlign=top;html=1;outlineConnect=0;" vertex="1" parent="1">
          <mxGeometry x="190" y="200" width="30" height="60" as="geometry" />
        </mxCell>
        <mxCell id="U1RUZYQq1lHfVOVuxAtu-3" value="Actor" style="shape=umlActor;verticalLabelPosition=bottom;verticalAlign=top;html=1;outlineConnect=0;" vertex="1" parent="1">
          <mxGeometry x="200" y="210" width="30" height="60" as="geometry" />
        </mxCell>
        <mxCell id="U1RUZYQq1lHfVOVuxAtu-4" value="" style="endArrow=classic;html=1;rounded=0;" edge="1" parent="1">
          <mxGeometry width="50" height="50" relative="1" as="geometry">
            <mxPoint x="250" y="240" as="sourcePoint" />
            <mxPoint x="320" y="240" as="targetPoint" />
          </mxGeometry>
        </mxCell>
        <mxCell id="U1RUZYQq1lHfVOVuxAtu-7" value="" style="edgeStyle=orthogonalEdgeStyle;rounded=0;orthogonalLoop=1;jettySize=auto;html=1;" edge="1" parent="1" source="U1RUZYQq1lHfVOVuxAtu-5" target="U1RUZYQq1lHfVOVuxAtu-6">
          <mxGeometry relative="1" as="geometry" />
        </mxCell>
        <mxCell id="U1RUZYQq1lHfVOVuxAtu-5" value="DNS Load Balancer" style="rounded=0;whiteSpace=wrap;html=1;" vertex="1" parent="1">
          <mxGeometry x="320" y="210" width="120" height="60" as="geometry" />
        </mxCell>
        <mxCell id="U1RUZYQq1lHfVOVuxAtu-9" value="" style="edgeStyle=orthogonalEdgeStyle;rounded=0;orthogonalLoop=1;jettySize=auto;html=1;" edge="1" parent="1" source="U1RUZYQq1lHfVOVuxAtu-6" target="U1RUZYQq1lHfVOVuxAtu-8">
          <mxGeometry relative="1" as="geometry" />
        </mxCell>
        <mxCell id="U1RUZYQq1lHfVOVuxAtu-6" value="MQ" style="whiteSpace=wrap;html=1;rounded=0;" vertex="1" parent="1">
          <mxGeometry x="520" y="210" width="120" height="60" as="geometry" />
        </mxCell>
        <mxCell id="U1RUZYQq1lHfVOVuxAtu-11" value="" style="edgeStyle=orthogonalEdgeStyle;rounded=0;orthogonalLoop=1;jettySize=auto;html=1;" edge="1" parent="1" source="U1RUZYQq1lHfVOVuxAtu-8" target="U1RUZYQq1lHfVOVuxAtu-10">
          <mxGeometry relative="1" as="geometry" />
        </mxCell>
        <mxCell id="U1RUZYQq1lHfVOVuxAtu-8" value="Load Balancer" style="whiteSpace=wrap;html=1;rounded=0;" vertex="1" parent="1">
          <mxGeometry x="720" y="210" width="120" height="60" as="geometry" />
        </mxCell>
        <mxCell id="U1RUZYQq1lHfVOVuxAtu-31" value="" style="edgeStyle=orthogonalEdgeStyle;rounded=0;orthogonalLoop=1;jettySize=auto;html=1;" edge="1" parent="1" source="U1RUZYQq1lHfVOVuxAtu-10" target="U1RUZYQq1lHfVOVuxAtu-30">
          <mxGeometry relative="1" as="geometry">
            <Array as="points">
              <mxPoint x="990" y="330" />
            </Array>
          </mxGeometry>
        </mxCell>
        <mxCell id="U1RUZYQq1lHfVOVuxAtu-10" value="NoSQL&lt;br&gt;timeseries db" style="ellipse;whiteSpace=wrap;html=1;rounded=0;" vertex="1" parent="1">
          <mxGeometry x="940" y="200" width="80" height="80" as="geometry" />
        </mxCell>
        <mxCell id="U1RUZYQq1lHfVOVuxAtu-12" value="Actor" style="shape=umlActor;verticalLabelPosition=bottom;verticalAlign=top;html=1;outlineConnect=0;" vertex="1" parent="1">
          <mxGeometry x="180" y="390" width="30" height="60" as="geometry" />
        </mxCell>
        <mxCell id="U1RUZYQq1lHfVOVuxAtu-13" value="Actor" style="shape=umlActor;verticalLabelPosition=bottom;verticalAlign=top;html=1;outlineConnect=0;" vertex="1" parent="1">
          <mxGeometry x="190" y="400" width="30" height="60" as="geometry" />
        </mxCell>
        <mxCell id="U1RUZYQq1lHfVOVuxAtu-14" value="Actor" style="shape=umlActor;verticalLabelPosition=bottom;verticalAlign=top;html=1;outlineConnect=0;" vertex="1" parent="1">
          <mxGeometry x="200" y="410" width="30" height="60" as="geometry" />
        </mxCell>
        <mxCell id="U1RUZYQq1lHfVOVuxAtu-23" value="" style="edgeStyle=orthogonalEdgeStyle;rounded=0;orthogonalLoop=1;jettySize=auto;html=1;" edge="1" parent="1" source="U1RUZYQq1lHfVOVuxAtu-21" target="U1RUZYQq1lHfVOVuxAtu-22">
          <mxGeometry relative="1" as="geometry" />
        </mxCell>
        <mxCell id="U1RUZYQq1lHfVOVuxAtu-21" value="CDN" style="rounded=0;whiteSpace=wrap;html=1;" vertex="1" parent="1">
          <mxGeometry x="290" y="400" width="120" height="60" as="geometry" />
        </mxCell>
        <mxCell id="U1RUZYQq1lHfVOVuxAtu-25" value="" style="edgeStyle=orthogonalEdgeStyle;rounded=0;orthogonalLoop=1;jettySize=auto;html=1;" edge="1" parent="1" source="U1RUZYQq1lHfVOVuxAtu-22" target="U1RUZYQq1lHfVOVuxAtu-24">
          <mxGeometry relative="1" as="geometry" />
        </mxCell>
        <mxCell id="U1RUZYQq1lHfVOVuxAtu-22" value="Server side rendering" style="whiteSpace=wrap;html=1;rounded=0;" vertex="1" parent="1">
          <mxGeometry x="490" y="400" width="120" height="60" as="geometry" />
        </mxCell>
        <mxCell id="U1RUZYQq1lHfVOVuxAtu-34" style="edgeStyle=orthogonalEdgeStyle;rounded=0;orthogonalLoop=1;jettySize=auto;html=1;entryX=0.5;entryY=1;entryDx=0;entryDy=0;" edge="1" parent="1" source="U1RUZYQq1lHfVOVuxAtu-24" target="U1RUZYQq1lHfVOVuxAtu-28">
          <mxGeometry relative="1" as="geometry">
            <Array as="points">
              <mxPoint x="750" y="500" />
              <mxPoint x="960" y="500" />
              <mxPoint x="960" y="490" />
              <mxPoint x="1150" y="490" />
            </Array>
          </mxGeometry>
        </mxCell>
        <mxCell id="U1RUZYQq1lHfVOVuxAtu-24" value="APIs" style="whiteSpace=wrap;html=1;rounded=0;" vertex="1" parent="1">
          <mxGeometry x="690" y="400" width="120" height="60" as="geometry" />
        </mxCell>
        <mxCell id="U1RUZYQq1lHfVOVuxAtu-29" value="" style="edgeStyle=orthogonalEdgeStyle;rounded=0;orthogonalLoop=1;jettySize=auto;html=1;" edge="1" parent="1" source="U1RUZYQq1lHfVOVuxAtu-26" target="U1RUZYQq1lHfVOVuxAtu-28">
          <mxGeometry relative="1" as="geometry" />
        </mxCell>
        <mxCell id="U1RUZYQq1lHfVOVuxAtu-35" style="edgeStyle=orthogonalEdgeStyle;rounded=0;orthogonalLoop=1;jettySize=auto;html=1;entryX=1;entryY=0.5;entryDx=0;entryDy=0;" edge="1" parent="1" source="U1RUZYQq1lHfVOVuxAtu-26" target="U1RUZYQq1lHfVOVuxAtu-24">
          <mxGeometry relative="1" as="geometry" />
        </mxCell>
        <mxCell id="U1RUZYQq1lHfVOVuxAtu-26" value="Cache" style="whiteSpace=wrap;html=1;rounded=0;" vertex="1" parent="1">
          <mxGeometry x="890" y="400" width="120" height="60" as="geometry" />
        </mxCell>
        <mxCell id="U1RUZYQq1lHfVOVuxAtu-28" value="RDBMS&lt;br&gt;user metadata" style="ellipse;whiteSpace=wrap;html=1;rounded=0;" vertex="1" parent="1">
          <mxGeometry x="1110" y="390" width="80" height="80" as="geometry" />
        </mxCell>
        <mxCell id="U1RUZYQq1lHfVOVuxAtu-32" value="" style="edgeStyle=orthogonalEdgeStyle;rounded=0;orthogonalLoop=1;jettySize=auto;html=1;" edge="1" parent="1" source="U1RUZYQq1lHfVOVuxAtu-30" target="U1RUZYQq1lHfVOVuxAtu-24">
          <mxGeometry relative="1" as="geometry" />
        </mxCell>
        <mxCell id="U1RUZYQq1lHfVOVuxAtu-30" value="cache" style="whiteSpace=wrap;html=1;rounded=0;" vertex="1" parent="1">
          <mxGeometry x="750" y="300" width="120" height="60" as="geometry" />
        </mxCell>
      </root>
    </mxGraphModel>
  </diagram>
</mxfile>
